<svg width="155" height="39" viewBox="0 0 155 39" fill="none" xmlns="http://www.w3.org/2000/svg">
<path d="M13.6085 2.90426L18.5872 0V1.5766L13.6915 4.48085L13.6085 2.90426Z" fill="white"/>
<path d="M0 10.5383L4.97872 7.63403V9.21063L0 12.1149V10.5383Z" fill="white"/>
<path d="M0 29.4575L4.97872 26.5532V28.1298L0 31.0341V29.4575Z" fill="white"/>
<path d="M0 14.1894L4.97872 11.2852V12.8618L0 15.766V14.1894Z" fill="white"/>
<path d="M0 33.2746L4.97872 30.3704V31.947L0 34.8512V33.2746Z" fill="white"/>
<path d="M0 17.6745L4.97872 14.7703V16.3469L0 19.2511V17.6745Z" fill="white"/>
<path d="M0 36.9255L4.97872 34.0212V35.5978L0 38.5021V36.9255Z" fill="white"/>
<path d="M13.6085 21.6574L18.5872 18.7532V20.3298L13.6915 23.234L13.6085 21.6574Z" fill="white"/>
<path d="M13.6085 6.22335L18.5872 3.31909V4.89569L13.6915 7.79994L13.6085 6.22335Z" fill="white"/>
<path d="M13.6085 25.4746L18.5872 22.5703V24.1469L13.6915 27.0512L13.6085 25.4746Z" fill="white"/>
<path d="M13.6085 9.70845L18.5872 6.8042V8.3808L13.6915 11.2851L13.6085 9.70845Z" fill="white"/>
<path d="M13.6085 29.2915L18.5872 26.3872V27.9638L13.6915 30.8681L13.6085 29.2915Z" fill="white"/>
<path d="M0.248901 21.0766L18.5872 10.3723V12.5298L0.248901 23.0681V21.0766Z" fill="white"/>
<path d="M0.248901 25.1425L18.5872 14.4382V16.5957L0.248901 27.134V25.1425Z" fill="white"/>
<path fill-rule="evenodd" clip-rule="evenodd" d="M18.5873 0L36.8426 10.5383V15.9319L32.0298 18.8362L36.8426 21.7404V26.8851L31.366 30.0383L37.0915 33.2745V39L18.5873 28.1298V0ZM23.4 14.0234V8.21486L31.8638 13.1106L26.9681 15.9319L23.4 14.0234ZM23.4 19.1681L31.6978 23.9808L26.5532 27.3L23.4 25.4744V19.1681Z" fill="white"/>
<path d="M57.168 25V16.5449H55.3985V19.9785H51.5899V16.5449H49.8204V25H51.5899V21.4375H55.3985V25H57.168ZM63.9359 23.5352H60.1038V21.4023H63.7191V20.043H60.1038V18.0039H63.9359V16.5449H58.3343V25H63.9359V23.5352ZM70.5103 25H72.3912L69.4498 16.5449H67.3697L64.4341 25H66.2505L66.8951 22.9492H69.8658L70.5103 25ZM68.3599 18.1621H68.4009L69.4849 21.625H67.2759L68.3599 18.1621ZM78.4852 23.5352H74.7879V16.5449H73.0184V25H78.4852V23.5352ZM81.9952 25V18.0039H84.4444V16.5449H77.7823V18.0039H80.2256V25H81.9952ZM92.5305 25V16.5449H90.761V19.9785H86.9524V16.5449H85.1829V25H86.9524V21.4375H90.761V25H92.5305ZM105.997 25C107.801 25 108.92 24.0684 108.92 22.5801C108.92 21.4609 108.077 20.623 106.928 20.5352V20.4883C107.825 20.3535 108.516 19.5801 108.516 18.6543C108.516 17.3594 107.52 16.5449 105.932 16.5449H102.252V25H105.997ZM104.022 17.8633H105.475C106.301 17.8633 106.776 18.25 106.776 18.9297C106.776 19.6445 106.237 20.0605 105.293 20.0605H104.022V17.8633ZM104.022 23.6816V21.2266H105.504C106.547 21.2266 107.116 21.6484 107.116 22.4395C107.116 23.248 106.565 23.6816 105.545 23.6816H104.022ZM115.225 25H117.106L114.165 16.5449H112.085L109.149 25H110.966L111.61 22.9492H114.581L115.225 25ZM113.075 18.1621H113.116L114.2 21.625H111.991L113.075 18.1621ZM123.2 23.5352H119.503V16.5449H117.733V25H123.2V23.5352ZM129.546 25H131.427L128.486 16.5449H126.405L123.47 25H125.286L125.931 22.9492H128.902L129.546 25ZM127.396 18.1621H127.437L128.521 21.625H126.312L127.396 18.1621ZM133.747 25V19.4629H133.8L137.755 25H139.22V16.5449H137.527V22.0527H137.48L133.531 16.5449H132.054V25H133.747ZM144.131 25.1465C146.205 25.1465 147.652 23.9512 147.851 22.0645H146.129C145.941 23.0664 145.185 23.6816 144.136 23.6816C142.783 23.6816 141.933 22.5684 141.933 20.7637C141.933 18.9824 142.795 17.8633 144.131 17.8633C145.162 17.8633 145.959 18.543 146.123 19.5801H147.845C147.711 17.6875 146.164 16.3984 144.131 16.3984C141.681 16.3984 140.129 18.0449 140.129 20.7695C140.129 23.5 141.67 25.1465 144.131 25.1465ZM154.309 23.5352H150.476V21.4023H154.092V20.043H150.476V18.0039H154.309V16.5449H148.707V25H154.309V23.5352Z" fill="white"/>
</svg>
